<mxfile host="app.diagrams.net" modified="2022-05-01T19:53:00.315Z" agent="5.0 (Windows NT 10.0; Win64; x64) AppleWebKit/537.36 (KHTML, like Gecko) Chrome/100.0.4896.127 Safari/537.36" etag="MJKJ6CA1G0pZppxPoEvd" version="17.5.0" type="github">
  <diagram id="z60xtPAnR-ULxuAIxuFx" name="Page-1">
    <mxGraphModel dx="1481" dy="739" grid="1" gridSize="10" guides="1" tooltips="1" connect="1" arrows="1" fold="1" page="1" pageScale="1" pageWidth="850" pageHeight="1100" math="1" shadow="0">
      <root>
        <mxCell id="0" />
        <mxCell id="1" parent="0" />
        <mxCell id="h0UrGXHvQZEW9EtAcBJj-1" value="&lt;font style=&quot;font-size: 40px&quot; color=&quot;#ff0000&quot;&gt;VARIATIE MULTIMI&lt;/font&gt;" style="text;html=1;align=center;verticalAlign=middle;resizable=0;points=[];autosize=1;strokeColor=none;fillColor=none;" vertex="1" parent="1">
          <mxGeometry x="60" y="145" width="360" height="30" as="geometry" />
        </mxCell>
        <mxCell id="h0UrGXHvQZEW9EtAcBJj-2" value="VARIATIE&amp;nbsp; &amp;nbsp; &amp;nbsp; &amp;nbsp;HISTOGRAM&amp;nbsp;&lt;br&gt;&amp;nbsp; &amp;nbsp; &amp;nbsp; &amp;nbsp; &amp;nbsp; P.D.F." style="text;html=1;align=center;verticalAlign=middle;resizable=0;points=[];autosize=1;strokeColor=none;fillColor=none;fontSize=40;fontColor=#FF0000;" vertex="1" parent="1">
          <mxGeometry x="60" y="500" width="520" height="100" as="geometry" />
        </mxCell>
        <mxCell id="h0UrGXHvQZEW9EtAcBJj-5" value="&lt;font color=&quot;#000000&quot;&gt;$$\frac{\partial \{...\}}{\partial t, \partial x}$$&lt;/font&gt;" style="text;html=1;align=center;verticalAlign=middle;resizable=0;points=[];autosize=1;strokeColor=none;fillColor=none;fontSize=40;fontColor=#FF0000;" vertex="1" parent="1">
          <mxGeometry x="-160" y="250" width="760" height="50" as="geometry" />
        </mxCell>
        <mxCell id="h0UrGXHvQZEW9EtAcBJj-6" value="$$\frac{\partial \Omega }{\partial t,\partial x}$$" style="text;html=1;align=center;verticalAlign=middle;resizable=0;points=[];autosize=1;strokeColor=none;fillColor=none;fontSize=40;fontColor=#000000;" vertex="1" parent="1">
          <mxGeometry x="-190" y="400" width="820" height="50" as="geometry" />
        </mxCell>
        <mxCell id="h0UrGXHvQZEW9EtAcBJj-7" value="" style="endArrow=none;html=1;fontSize=40;fontColor=#000000;curved=1;strokeColor=#FF0000;strokeWidth=2;" edge="1" parent="1">
          <mxGeometry width="50" height="50" relative="1" as="geometry">
            <mxPoint x="112.5" y="350" as="sourcePoint" />
            <mxPoint x="327.5" y="350" as="targetPoint" />
            <Array as="points">
              <mxPoint x="132.5" y="340" />
              <mxPoint x="182.5" y="360" />
              <mxPoint x="262.5" y="340" />
              <mxPoint x="302.5" y="360" />
            </Array>
          </mxGeometry>
        </mxCell>
        <mxCell id="h0UrGXHvQZEW9EtAcBJj-8" value="" style="endArrow=classic;html=1;fontSize=40;fontColor=#000000;strokeColor=#FF0000;strokeWidth=2;curved=1;" edge="1" parent="1">
          <mxGeometry width="50" height="50" relative="1" as="geometry">
            <mxPoint x="250" y="530" as="sourcePoint" />
            <mxPoint x="320" y="530" as="targetPoint" />
          </mxGeometry>
        </mxCell>
        <mxCell id="h0UrGXHvQZEW9EtAcBJj-9" value="" style="endArrow=classic;html=1;fontSize=40;fontColor=#000000;strokeColor=#FF0000;strokeWidth=2;rounded=0;" edge="1" parent="1">
          <mxGeometry width="50" height="50" relative="1" as="geometry">
            <mxPoint x="250" y="530" as="sourcePoint" />
            <mxPoint x="310" y="580" as="targetPoint" />
            <Array as="points">
              <mxPoint x="250" y="580" />
            </Array>
          </mxGeometry>
        </mxCell>
      </root>
    </mxGraphModel>
  </diagram>
</mxfile>
